<svg xmlns="http://www.w3.org/2000/svg" xmlns:xlink="http://www.w3.org/1999/xlink" fill="none" version="1.1" width="36" height="36" viewBox="0 0 36 36"><defs><clipPath id="master_svg0_37_0899"><rect x="0" y="0" width="36" height="36" rx="18"/></clipPath><clipPath id="master_svg1_37_0900"><rect x="6" y="6" width="24" height="24" rx="0"/></clipPath></defs><g clip-path="url(#master_svg0_37_0899)"><rect x="0" y="0" width="36" height="36" rx="18" fill="#FF9933" fill-opacity="1"/><g clip-path="url(#master_svg1_37_0900)"><g><path d="M13.387300937500001,13.71552734375C13.3873109375,16.26293734375,15.452390937499999,18.32802734375,17.9998109375,18.32802734375C20.5472609375,18.32802734375,22.6122609375,16.26293734375,22.6122609375,13.71552734375C22.6122609375,11.16811734375,20.5472609375,9.10302734375,17.9998109375,9.10302734375C15.452390937499999,9.10302734375,13.3873109375,11.16811734375,13.387300937500001,13.71552734375ZM21.2951609375,20.30612734375L14.704490937500001,20.30612734375C11.4419909375,20.30612734375,8.7724609375,22.96392734375,8.7724609375,26.89682734375L27.2271609375,26.89682734375C27.2247609375,23.329627343749998,24.5576609375,20.30612734375,21.2951609375,20.30612734375Z" fill="#FFFFFF" fill-opacity="1"/></g></g></g></svg>